<svg xmlns="http://www.w3.org/2000/svg" width="1280" height="720" viewBox="0 0 1280 720" fill="none">
  <rect width="1280" height="720" fill="#09090B"/>
  <rect x="0" y="0" width="1280" height="720" fill="url(#bg)" opacity="0.5"/>
  <defs>
    <linearGradient id="bg" x1="0" y1="0" x2="1280" y2="720">
      <stop stop-color="#4F46E5" stop-opacity="0.15"/>
      <stop offset="1" stop-color="#09090B" stop-opacity="0"/>
    </linearGradient>
  </defs>
  <rect x="60" y="48" width="1160" height="624" rx="16" fill="#161B22" stroke="#2D3139"/>
  <rect x="60" y="48" width="1160" height="40" rx="16" fill="#21262D"/>
  <circle cx="88" cy="68" r="6" fill="#EF4444"/>
  <circle cx="108" cy="68" r="6" fill="#EAB308"/>
  <circle cx="128" cy="68" r="6" fill="#22C55E"/>
  <text x="160" y="74" font-family="system-ui,sans-serif" font-size="14" fill="#9AA0A6">Amzi Loci — AI listing creation</text>
  <rect x="80" y="110" width="160" height="540" rx="8" fill="#0F1117"/>
  <rect x="92" y="126" width="24" height="24" rx="6" fill="#4F46E5"/>
  <text x="124" y="144" font-family="system-ui,sans-serif" font-size="13" font-weight="600" fill="#FAFAFA">Amzi Loci</text>
  <rect x="92" y="170" width="136" height="28" rx="6" fill="#4F46E522"/>
  <text x="104" y="189" font-family="system-ui,sans-serif" font-size="12" fill="#E8EAED">Projects</text>
  <rect x="280" y="130" width="420" height="120" rx="8" fill="#0F1117" stroke="#2D3139"/>
  <text x="296" y="156" font-family="system-ui,sans-serif" font-size="11" fill="#71717A">Reviews in</text>
  <text x="296" y="182" font-family="system-ui,sans-serif" font-size="14" fill="#E4E4E7">"Love the battery life" · "Fits my bag perfectly"</text>
  <rect x="720" y="130" width="420" height="120" rx="8" fill="#4F46E511" stroke="#4F46E544"/>
  <text x="736" y="156" font-family="system-ui,sans-serif" font-size="11" fill="#A5B4FC">AI insights</text>
  <text x="736" y="182" font-family="system-ui,sans-serif" font-size="13" fill="#E4E4E7">Battery · Compact · Durability</text>
  <rect x="280" y="270" width="420" height="140" rx="8" fill="#0F1117" stroke="#2D3139"/>
  <text x="296" y="296" font-family="system-ui,sans-serif" font-size="11" fill="#71717A">Listing copy</text>
  <text x="296" y="322" font-family="system-ui,sans-serif" font-size="16" font-weight="600" fill="#FAFAFA">Ultra-Compact Daily Carry Bag</text>
  <rect x="720" y="270" width="420" height="140" rx="8" fill="#0F1117" stroke="#2D3139"/>
  <text x="736" y="296" font-family="system-ui,sans-serif" font-size="11" fill="#71717A">Gallery images</text>
  <rect x="736" y="310" width="56" height="56" rx="4" fill="#4F46E533"/>
  <rect x="800" y="310" width="56" height="56" rx="4" fill="#4F46E533"/>
  <rect x="864" y="310" width="56" height="56" rx="4" fill="#4F46E533"/>
  <rect x="928" y="310" width="56" height="56" rx="4" fill="#21262D" stroke="#2D3139"/>
  <rect x="992" y="310" width="56" height="56" rx="4" fill="#21262D" stroke="#2D3139"/>
  <rect x="1056" y="310" width="56" height="56" rx="4" fill="#21262D" stroke="#2D3139"/>
  <rect x="280" y="430" width="860" height="56" rx="8" fill="#14532D33" stroke="#22C55E44"/>
  <text x="296" y="464" font-family="system-ui,sans-serif" font-size="14" fill="#86EFAC">Upload pack ready — listing-copy.txt + images/ + product-video.mp4</text>
  <text x="80" y="680" font-family="system-ui,sans-serif" font-size="16" fill="#71717A">Reviews ? AI insights ? copy, images &amp; video ? export</text>
</svg>
